<svg width="170.000000" height="38.000000" viewBox="0 0 170 38" fill="none" xmlns="http://www.w3.org/2000/svg" xmlns:xlink="http://www.w3.org/1999/xlink">
	<desc>
			Created with Pixso.
	</desc>
	<defs/>
	<path id="Vector" d="M166.48 29.32L166.48 7.91L170 7.91L170 29.32L166.48 29.32Z" fill="#000000" fill-opacity="1.000000" fill-rule="nonzero"/>
	<path id="Vector" d="M145.18 21.49L145.18 7.91L148.69 7.91L148.69 21.55C148.69 24.88 150.57 26.45 153.53 26.45C156.52 26.45 158.4 24.88 158.4 21.55L158.4 7.91L161.91 7.91L161.91 21.49C161.91 26.95 157.97 29.53 153.5 29.53C149 29.53 145.18 26.95 145.18 21.49Z" fill="#000000" fill-opacity="1.000000" fill-rule="nonzero"/>
	<path id="Vector" d="M136.9 20.38L136.9 29.32L133.39 29.32L133.39 12.34L136.9 12.34L136.9 14.81C137.89 13.11 139.58 12.06 141.98 12.06L141.98 15.7L141.09 15.7C138.5 15.7 136.9 16.78 136.9 20.38Z" fill="#000000" fill-opacity="1.000000" fill-rule="nonzero"/>
	<path id="Vector" d="M121.52 15.02C119.15 15.02 117.24 16.62 116.87 19.3L126.27 19.3C126.2 16.69 124.14 15.02 121.52 15.02ZM129.47 24.26C128.51 27.22 125.83 29.59 121.68 29.59C116.81 29.59 113.2 26.14 113.2 20.81C113.2 15.48 116.65 12.06 121.68 12.06C126.51 12.06 129.93 15.42 129.93 20.41C129.93 21 129.9 21.55 129.81 22.14L116.84 22.14C117.08 24.94 119.09 26.64 121.68 26.64C123.83 26.64 125.03 25.59 125.68 24.26L129.47 24.26Z" fill="#000000" fill-opacity="1.000000" fill-rule="nonzero"/>
	<path id="Vector" d="M103.46 24.6L103.46 15.21L101.46 15.21L101.46 12.34L103.46 12.34L103.46 8.12L107.01 8.12L107.01 12.34L111.14 12.34L111.14 15.21L107.01 15.21L107.01 24.6C107.01 25.87 107.5 26.39 108.98 26.39L111.14 26.39L111.14 29.32L108.36 29.32C105.34 29.32 103.46 28.05 103.46 24.6Z" fill="#000000" fill-opacity="1.000000" fill-rule="nonzero"/>
	<path id="Vector" d="M99 24.13C99 26.9 96.61 29 92.78 29C88.88 29 86.14 26.66 86 23.68L89.47 23.68C89.59 25.02 90.86 26.13 92.72 26.13C94.66 26.13 95.69 25.29 95.69 24.15C95.69 20.93 86.26 22.78 86.26 16.75C86.26 14.12 88.68 12 92.51 12C96.19 12 98.61 14 98.79 17.28L95.43 17.28C95.31 15.85 94.22 14.86 92.39 14.86C90.59 14.86 89.65 15.61 89.65 16.72C89.65 20.03 98.82 18.18 99 24.13Z" fill="#000000" fill-opacity="1.000000" fill-rule="nonzero"/>
	<path id="Vector" d="M64.4 20.75C64.4 15.52 67.94 12.06 72.41 12.06C75.28 12.06 77.25 13.42 78.3 14.81L78.3 12.34L81.84 12.34L81.84 29.32L78.3 29.32L78.3 26.79C77.22 28.24 75.18 29.59 72.35 29.59C67.94 29.59 64.4 25.99 64.4 20.75ZM78.3 20.81C78.3 17.18 75.8 15.11 73.15 15.11C70.53 15.11 68.01 17.09 68.01 20.75C68.01 24.42 70.53 26.54 73.15 26.54C75.8 26.54 78.3 24.48 78.3 20.81Z" fill="#000000" fill-opacity="1.000000" fill-rule="nonzero"/>
	<path id="Vector" d="M49.72 29.32L49.72 7.91L62.32 7.91L62.32 10.77L53.23 10.77L53.23 17.09L60.32 17.09L60.32 19.95L53.23 19.95L53.23 29.32L49.72 29.32Z" fill="#000000" fill-opacity="1.000000" fill-rule="nonzero"/>
	<path id="Subtract" d="M10.2551 0L27.0364 0C32.7001 0 37.2915 4.59143 37.2915 10.2551L37.2915 27.0364C37.2915 32.7001 32.7001 37.2915 27.0364 37.2915L10.2551 37.2915C4.59143 37.2915 0 32.7001 0 27.0364L0 10.2551C0 4.59143 4.59143 0 10.2551 0ZM24.9545 16.1292C25.0214 16.1674 25.0767 16.2223 25.1149 16.2883C25.153 16.3545 25.1726 16.4292 25.1716 16.5051C25.1708 16.5811 25.1493 16.6554 25.1096 16.7206L18.2533 28.7002C18.2007 28.7816 18.1219 28.8434 18.0294 28.8757C17.9369 28.9082 17.8359 28.9093 17.7428 28.8789C17.6495 28.8485 17.5693 28.7885 17.5149 28.7083C17.4606 28.6279 17.4351 28.5322 17.4425 28.4362L18.2042 21.2219L12.5573 21.2219C12.4794 21.2219 12.403 21.2015 12.3358 21.1628C12.2687 21.1243 12.2133 21.0687 12.1753 21.0021C12.1373 20.9354 12.1182 20.8601 12.1198 20.7837C12.1215 20.7074 12.1438 20.6329 12.1846 20.5679L19.156 8.58679C19.2098 8.50562 19.29 8.44446 19.3837 8.41345C19.4773 8.38232 19.5789 8.38306 19.672 8.41541C19.7651 8.44775 19.8444 8.51001 19.8971 8.59192C19.9498 8.67395 19.9729 8.771 19.9626 8.86731L19.0015 16.0708L24.7341 16.0708C24.8115 16.0708 24.8876 16.0909 24.9545 16.1292Z" clip-rule="evenodd" fill="#000000" fill-opacity="1.000000" fill-rule="evenodd"/>
</svg>
